<svg xmlns="http://www.w3.org/2000/svg" xmlns:xlink="http://www.w3.org/1999/xlink" preserveAspectRatio="xMidYMid" width="405" height="64.5" viewBox="0 0 405 64.5">
  <defs>
    <style>
      .cls-1 {
        fill: #fff;
        fill-rule: evenodd;
      }
    </style>
  </defs>
  <path d="M402.540,24.496 L402.322,21.139 L400.875,24.496 L400.006,24.496 L398.535,21.139 L398.341,24.496 L395.880,24.496 L396.436,17.590 L399.089,17.590 L400.441,20.874 L401.743,17.590 L404.397,17.590 L405.000,24.496 L402.540,24.496 ZM393.492,24.496 L391.031,24.496 L391.031,19.618 L389.052,19.618 L389.052,17.590 L395.422,17.590 L395.422,19.618 L393.492,19.618 L393.492,24.496 ZM383.171,54.144 C381.993,56.878 380.452,59.443 378.588,61.770 C378.274,62.161 377.949,62.544 377.612,62.917 C377.260,63.312 376.890,63.692 376.503,64.054 L376.036,64.490 L375.375,64.488 L327.125,64.366 L303.000,64.256 L278.875,64.078 L254.750,63.864 L230.625,63.590 C214.541,63.335 190.511,63.173 174.427,62.820 C190.511,62.468 214.541,62.305 230.625,62.051 L254.750,61.777 L278.875,61.562 L303.000,61.385 L327.125,61.275 L374.660,61.155 C374.808,61.000 374.962,60.852 375.104,60.691 C375.395,60.365 375.680,60.028 375.954,59.680 C376.509,58.984 377.030,58.262 377.517,57.517 C378.491,56.019 379.341,54.443 380.056,52.806 C381.493,49.533 382.348,46.013 382.623,42.443 C382.886,38.876 382.558,35.225 381.931,31.619 C381.525,29.369 381.018,27.099 380.399,24.881 C380.236,25.161 380.076,25.441 379.888,25.716 C379.356,26.500 378.757,27.168 378.133,27.796 C377.505,28.423 376.835,29.005 376.126,29.540 L373.606,31.439 L373.858,28.306 C373.945,27.225 373.948,26.009 373.913,24.852 C373.877,23.680 373.788,22.510 373.645,21.347 C373.361,19.019 372.900,16.707 372.169,14.487 C371.799,13.384 371.389,12.282 370.910,11.231 C370.416,10.178 369.851,9.159 369.220,8.180 C368.252,6.684 367.180,5.258 366.013,3.912 C365.744,4.954 365.414,5.958 365.010,6.954 C364.368,8.507 363.638,9.999 362.652,11.405 C361.677,12.791 360.530,14.011 359.310,15.134 C358.092,16.257 356.792,17.289 355.421,18.220 L354.929,18.555 L354.760,18.002 L353.697,14.546 C353.236,15.036 352.795,15.562 352.376,16.095 C351.843,16.775 351.352,17.487 350.907,18.226 C350.019,19.707 349.339,21.328 349.053,23.051 C349.226,21.314 349.806,19.626 350.611,18.064 C351.422,16.499 352.411,15.038 353.617,13.713 L353.961,13.333 L354.147,13.835 L355.375,17.152 C356.486,16.281 357.542,15.344 358.531,14.336 C359.652,13.198 360.685,11.976 361.517,10.655 C362.344,9.357 362.968,7.868 363.483,6.391 C363.981,4.913 364.395,3.340 364.580,1.863 L364.812,0.010 L366.144,1.317 C367.929,3.064 369.547,4.974 370.976,7.021 C372.414,9.069 373.577,11.376 374.417,13.727 C375.276,16.086 375.845,18.533 376.227,21.000 C376.415,22.232 376.552,23.474 376.629,24.722 C376.637,24.859 376.643,24.994 376.651,25.130 C376.941,24.792 377.214,24.449 377.440,24.100 C377.823,23.513 378.153,22.845 378.436,22.165 C378.712,21.498 378.965,20.734 379.110,20.103 L380.255,15.163 L382.049,19.898 C382.754,21.756 383.317,23.559 383.838,25.420 C384.350,27.274 384.800,29.147 385.148,31.046 C385.830,34.840 386.220,38.738 385.949,42.684 C385.668,46.612 384.744,50.513 383.171,54.144 ZM351.112,28.306 L360.709,28.306 L360.709,55.917 L353.547,55.917 L332.210,41.046 L332.210,55.917 L322.709,55.917 L322.709,35.523 L316.376,28.306 L329.968,28.306 L351.112,43.321 L351.112,28.306 ZM304.197,55.917 L294.844,46.907 L285.636,46.907 L285.636,55.917 L276.136,55.917 L276.136,39.690 L305.075,39.690 L305.075,35.523 L276.137,35.523 L269.803,28.306 L308.095,28.306 C310.434,28.306 312.106,28.823 313.114,29.856 L313.112,29.856 C314.119,30.890 314.623,32.230 314.623,33.877 L314.623,40.901 C314.623,42.741 313.916,44.163 312.503,45.163 C311.091,46.165 309.149,46.681 306.682,46.713 L315.986,55.917 L304.197,55.917 ZM225.374,28.306 L234.873,28.306 L234.873,48.651 L256.553,48.651 L256.553,28.306 L266.101,28.306 L266.101,55.917 L225.374,55.917 L225.374,28.306 ZM215.728,54.246 C215.122,54.772 214.430,55.190 213.682,55.481 C212.935,55.771 212.188,55.917 211.441,55.917 L176.657,55.917 L176.657,38.479 L208.225,38.479 L208.225,35.523 L176.657,35.523 L170.324,28.306 L217.774,28.306 L217.774,38.672 C217.774,38.737 217.726,38.915 217.628,39.205 C217.531,39.496 217.409,39.819 217.263,40.174 C217.117,40.530 216.954,40.869 216.776,41.192 C216.597,41.514 216.426,41.741 216.264,41.869 C216.475,42.118 216.663,42.386 216.825,42.668 C217.003,42.976 217.166,43.274 217.311,43.565 C217.457,43.856 217.571,44.123 217.652,44.364 C217.733,44.607 217.774,44.775 217.774,44.872 L217.774,49.910 C217.774,50.815 217.587,51.630 217.214,52.357 C216.846,53.076 216.341,53.717 215.728,54.246 ZM208.225,45.697 L186.157,45.697 L186.157,48.699 L186.157,48.699 L208.225,48.699 L208.225,45.697 ZM161.865,53.384 C160.418,54.674 158.547,55.697 156.250,56.454 C153.954,57.211 151.186,57.590 147.947,57.590 L136.079,57.590 C132.841,57.590 130.073,57.211 127.777,56.454 C125.480,55.697 123.609,54.674 122.162,53.384 C120.715,52.096 119.659,50.582 118.996,48.841 C118.332,47.101 118.000,45.234 118.000,43.241 C118.000,41.247 118.332,39.382 118.996,37.640 C119.659,35.900 120.715,34.386 122.162,33.097 C123.609,31.808 125.480,30.785 127.777,30.028 C130.073,29.271 132.841,28.892 136.079,28.892 L147.947,28.892 C151.186,28.892 153.954,29.271 156.250,30.028 C158.547,30.785 160.418,31.808 161.866,33.097 C163.312,34.386 164.367,35.900 165.031,37.641 C165.695,39.381 166.027,41.247 166.027,43.241 C166.027,45.234 165.695,47.101 165.031,48.841 C164.367,50.582 163.312,52.096 161.865,53.384 ZM158.938,39.813 C158.566,38.751 157.936,37.820 157.047,37.023 C156.157,36.226 154.969,35.602 153.483,35.150 C151.996,34.698 150.137,34.472 147.907,34.472 L136.159,34.472 C133.902,34.472 132.031,34.698 130.544,35.150 C129.058,35.602 127.869,36.226 126.980,37.023 C126.091,37.820 125.460,38.751 125.089,39.813 C124.717,40.876 124.531,42.019 124.531,43.241 C124.531,44.464 124.717,45.605 125.089,46.669 C125.460,47.731 126.091,48.662 126.980,49.458 C127.870,50.256 129.058,50.880 130.544,51.332 C132.031,51.784 133.889,52.009 136.120,52.009 L147.907,52.009 C150.137,52.009 151.996,51.784 153.483,51.332 C154.969,50.880 156.157,50.256 157.046,49.458 C157.936,48.662 158.567,47.731 158.938,46.669 C159.310,45.605 159.496,44.463 159.496,43.241 C159.496,42.019 159.310,40.876 158.938,39.813 ZM96.129,57.590 L89.871,57.590 L89.871,35.190 L70.000,35.190 L70.000,29.590 L116.000,29.590 L116.000,35.190 L96.129,35.190 L96.129,57.590 ZM59.000,29.590 L65.000,29.590 L65.000,57.590 L59.000,57.590 L59.000,29.590 ZM42.805,38.110 L24.500,56.750 L6.195,38.110 L6.195,57.590 L-0.000,57.590 L-0.000,29.590 L5.914,29.590 L24.500,48.350 L43.086,29.590 L49.000,29.590 L49.000,57.590 L42.805,57.590 L42.805,38.110 Z" class="cls-1"/>
</svg>
