<svg xmlns="http://www.w3.org/2000/svg" xmlns:xlink="http://www.w3.org/1999/xlink" preserveAspectRatio="xMidYMid" width="220.75" height="76.91" viewBox="0 0 220.75 76.91">
  <defs>
    <style>
      .cls-1 {
        fill: #fff;
        fill-rule: evenodd;
      }
    </style>
  </defs>
  <path d="M220.397,5.488 C220.214,6.122 220.003,6.740 219.752,7.330 C219.260,8.518 218.675,9.640 218.040,10.725 C217.617,11.451 217.170,12.163 216.699,12.859 C217.011,14.111 217.172,15.431 217.172,16.823 C217.172,19.279 216.689,21.518 215.722,23.539 C214.756,25.561 213.466,27.290 211.856,28.726 C210.245,30.162 208.370,31.277 206.229,32.069 C204.087,32.862 201.841,33.260 199.491,33.260 C197.727,33.260 196.024,33.030 194.379,32.582 C194.094,32.705 193.806,32.822 193.514,32.936 C192.334,33.378 191.102,33.762 189.788,33.817 C189.459,33.825 189.128,33.816 188.795,33.754 C188.473,33.711 188.099,33.579 187.833,33.367 C187.283,32.946 187.001,32.263 187.094,31.653 C187.183,32.260 187.582,32.763 188.078,32.968 C188.197,33.022 188.323,33.059 188.452,33.079 C188.575,33.104 188.705,33.099 188.848,33.094 C189.122,33.086 189.402,33.034 189.678,32.969 C190.783,32.682 191.844,32.154 192.862,31.566 C194.901,30.377 196.813,28.941 198.660,27.437 C202.347,24.413 205.790,21.075 209.024,17.572 C209.834,16.699 210.624,15.808 211.393,14.899 C212.165,13.997 212.916,13.077 213.645,12.140 C215.092,10.272 216.465,8.334 217.551,6.312 C218.080,5.306 218.555,4.250 218.733,3.269 C218.780,3.024 218.792,2.797 218.793,2.582 C218.770,2.388 218.754,2.191 218.687,2.064 C218.623,1.928 218.552,1.807 218.405,1.715 C218.347,1.657 218.246,1.631 218.162,1.583 C218.062,1.551 217.959,1.518 217.845,1.492 C217.381,1.398 216.818,1.429 216.257,1.509 C215.691,1.591 215.119,1.744 214.544,1.903 C213.967,2.075 213.396,2.270 212.835,2.489 C212.262,2.695 211.703,2.938 211.132,3.169 C212.097,2.394 213.130,1.707 214.219,1.117 C214.773,0.822 215.348,0.556 215.965,0.344 C216.585,0.140 217.243,-0.021 217.996,-0.008 C218.191,0.001 218.385,0.024 218.577,0.060 C218.778,0.118 218.980,0.156 219.180,0.264 C219.586,0.434 219.958,0.765 220.213,1.140 C220.488,1.523 220.595,1.937 220.686,2.333 L220.686,2.334 C220.746,2.707 220.768,3.085 220.750,3.462 C220.717,4.183 220.577,4.851 220.397,5.488 ZM210.372,10.956 C209.470,12.063 208.547,13.155 207.605,14.228 C207.529,13.985 207.446,13.746 207.350,13.513 C206.876,12.356 206.221,11.370 205.387,10.553 C204.552,9.738 203.566,9.114 202.427,8.676 C201.289,8.240 200.074,8.022 198.784,8.022 C197.456,8.022 196.233,8.240 195.113,8.676 C194.014,9.100 193.008,9.738 192.154,10.553 C191.300,11.371 190.636,12.356 190.162,13.513 C189.687,14.670 189.451,15.968 189.451,17.410 C189.451,18.851 189.687,20.150 190.162,21.307 C190.636,22.465 191.301,23.451 192.154,24.266 C193.145,25.214 194.341,25.921 195.649,26.330 C193.935,27.855 192.171,29.330 190.311,30.606 C189.931,30.868 189.542,31.117 189.145,31.353 C188.165,30.783 187.244,30.114 186.397,29.358 L186.397,29.358 C184.787,27.917 183.499,26.181 182.533,24.152 C181.567,22.123 181.084,19.876 181.084,17.410 C181.084,14.945 181.567,12.697 182.533,10.667 C183.498,8.638 184.787,6.904 186.397,5.462 C188.007,4.020 189.882,2.901 192.022,2.104 C194.162,1.309 196.406,0.910 198.756,0.910 C201.105,0.910 203.350,1.308 205.490,2.104 C207.630,2.901 209.506,4.020 211.115,5.462 C211.800,6.077 212.431,6.751 213.000,7.476 C212.183,8.654 211.291,9.815 210.372,10.956 ZM183.000,50.224 C183.000,51.281 182.136,52.052 181.027,52.052 L159.649,52.052 C159.197,52.052 158.827,52.417 158.827,52.864 L158.827,57.819 C158.827,58.916 157.923,59.810 156.854,59.810 C155.745,59.810 154.844,58.920 154.840,57.820 L154.840,53.067 C154.840,50.469 157.018,48.315 159.649,48.315 L181.027,48.315 C182.136,48.315 183.000,49.128 183.000,50.224 ZM147.163,1.651 L176.132,1.651 L176.132,9.160 L155.529,9.160 L155.529,13.428 L174.027,13.428 L174.027,20.937 L155.529,20.937 L155.529,25.375 L176.873,25.375 L176.873,33.113 L147.163,33.113 L147.163,1.651 ZM147.854,74.959 C147.851,76.038 146.968,76.911 145.881,76.908 C144.770,76.908 143.866,76.015 143.866,74.959 L143.866,52.702 C143.866,52.254 143.620,51.849 143.044,51.849 C142.715,51.849 142.427,52.174 142.222,52.458 L136.096,61.353 C135.068,62.775 133.630,63.587 131.985,63.587 C130.382,63.587 128.943,62.815 127.916,61.393 L121.790,52.458 C121.502,52.052 121.214,51.849 120.968,51.849 C120.392,51.849 120.105,52.254 120.105,52.702 L120.105,74.959 C120.101,76.038 119.218,76.911 118.131,76.908 C117.021,76.908 116.117,76.015 116.117,74.959 L116.117,52.702 C116.117,50.062 118.296,47.910 120.968,47.910 C122.571,47.910 124.010,48.722 125.037,50.184 L131.163,59.079 C131.369,59.363 131.615,59.647 131.985,59.647 C132.355,59.647 132.684,59.282 132.807,59.079 L138.933,50.184 C140.002,48.722 141.441,47.910 143.044,47.910 C145.716,47.910 147.854,50.062 147.854,52.702 L147.854,74.959 ZM113.867,1.651 L122.234,1.651 L122.234,25.603 L143.008,25.603 L143.008,33.113 L113.867,33.113 L113.867,1.651 ZM107.156,76.908 C106.046,76.908 105.142,76.056 105.142,74.959 L105.141,74.959 L105.141,49.899 C105.146,48.799 106.046,47.909 107.156,47.910 C108.265,47.910 109.129,48.803 109.129,49.899 L109.129,74.959 C109.129,76.056 108.265,76.908 107.156,76.908 ZM102.598,13.541 C101.423,11.833 100.084,10.535 98.586,9.644 C97.086,8.752 95.123,8.306 92.695,8.306 C89.886,8.306 87.639,9.123 85.951,10.753 C84.262,12.385 83.417,14.604 83.417,17.410 C83.417,18.776 83.645,20.017 84.101,21.137 C84.556,22.256 85.191,23.212 86.008,24.009 C86.823,24.807 87.801,25.423 88.939,25.859 C90.077,26.294 91.330,26.512 92.695,26.512 C95.086,26.512 97.050,26.076 98.586,25.205 C100.123,24.333 101.441,23.043 102.541,21.335 L109.030,24.976 C107.437,27.974 105.283,30.211 102.570,31.691 C99.856,33.170 96.603,33.910 92.809,33.910 C90.267,33.910 87.912,33.530 85.748,32.772 C83.584,32.013 81.707,30.922 80.123,29.501 C78.537,28.078 77.295,26.342 76.397,24.294 C75.499,22.246 75.052,19.951 75.052,17.410 C75.052,14.868 75.510,12.583 76.426,10.553 C77.343,8.525 78.604,6.798 80.208,5.376 C81.813,3.954 83.689,2.854 85.834,2.076 C87.980,1.299 90.305,0.910 92.809,0.910 C100.398,0.910 105.824,3.888 109.087,9.843 L102.598,13.541 L102.598,13.541 ZM89.810,48.314 C95.154,48.314 99.183,51.808 99.183,56.316 C99.183,60.825 95.072,64.317 89.769,64.317 L88.864,64.317 L98.073,73.537 C99.018,74.471 98.854,75.690 98.073,76.380 C97.374,76.989 96.140,77.192 95.277,76.339 L82.698,63.790 C82.122,63.261 81.958,62.409 82.286,61.636 C82.574,60.906 83.315,60.580 84.137,60.580 L89.851,60.580 C92.482,60.580 95.195,58.915 95.195,56.316 C95.195,53.716 92.482,52.052 89.810,52.052 L75.832,52.052 C75.380,52.052 75.011,52.417 75.011,52.864 L75.011,74.959 C75.011,76.014 74.105,76.908 73.037,76.908 C71.927,76.908 71.022,76.014 71.022,74.959 L71.022,53.067 C71.022,50.426 73.201,48.314 75.832,48.314 L89.810,48.314 ZM66.009,29.699 C64.608,31.064 62.903,32.107 60.896,32.827 C58.888,33.547 56.654,33.909 54.192,33.909 C51.730,33.909 49.495,33.547 47.488,32.827 C45.479,32.107 43.775,31.064 42.374,29.699 C40.972,28.333 39.894,26.646 39.137,24.635 C38.378,22.625 38.000,20.311 38.000,17.694 L38.000,1.651 L46.365,1.651 L46.365,17.751 C46.365,20.559 46.992,22.729 48.244,24.265 C49.496,25.801 51.488,26.570 54.220,26.570 C56.914,26.570 58.888,25.801 60.140,24.266 C61.392,22.729 62.018,20.559 62.018,17.752 L62.018,1.650 L70.385,1.650 L70.385,17.694 C70.385,20.311 70.006,22.624 69.248,24.635 C68.490,26.646 67.411,28.333 66.009,29.699 ZM55.650,48.315 C60.995,48.315 65.065,51.809 65.065,56.317 C65.065,60.826 61.036,64.318 55.691,64.318 L41.303,64.318 C40.851,64.318 40.481,64.683 40.481,65.130 L40.481,74.959 C40.481,76.015 39.576,76.908 38.467,76.908 C37.379,76.911 36.496,76.039 36.493,74.959 L36.493,65.211 C36.493,62.572 38.630,60.581 41.303,60.581 L55.691,60.581 C58.364,60.581 61.076,58.916 61.076,56.317 C61.076,53.717 58.322,52.052 55.650,52.052 L38.014,52.052 C36.904,52.052 36.000,51.280 36.000,50.184 C36.000,49.087 36.904,48.315 38.014,48.315 L55.650,48.315 ZM8.188,13.646 L8.188,32.678 L-0.000,32.678 L-0.000,1.167 L7.567,1.167 L24.282,20.199 L24.282,1.167 L32.584,1.167 L32.584,32.678 L24.942,32.678 L8.188,13.646 ZM159.649,60.582 L175.518,60.582 C176.628,60.582 177.491,61.353 177.491,62.449 C177.491,63.546 176.628,64.318 175.518,64.318 L159.649,64.318 C159.197,64.318 158.827,64.683 158.827,65.171 L158.827,71.994 C158.829,72.443 159.196,72.807 159.649,72.807 L181.027,72.807 C182.136,72.807 183.000,73.619 183.000,74.675 C183.000,75.771 182.136,76.544 181.027,76.544 L159.649,76.544 C157.018,76.544 154.839,74.391 154.839,71.791 L154.839,65.374 C154.839,62.734 157.018,60.582 159.649,60.582 Z" class="cls-1"/>
</svg>
