<svg xmlns="http://www.w3.org/2000/svg" xmlns:xlink="http://www.w3.org/1999/xlink" preserveAspectRatio="xMidYMid" width="159" height="48" viewBox="0 0 159 48">
  <defs>
    <style>
      .cls-1 {
        fill: #fefefe;
        fill-rule: evenodd;
      }
    </style>
  </defs>
  <path d="M154.034,22.290 C157.343,24.917 159.000,28.497 159.000,33.036 C159.000,37.652 157.420,41.312 154.334,43.937 C151.249,46.565 146.881,47.919 141.242,47.919 L114.522,48.000 L114.522,47.997 L114.525,47.997 C114.280,47.991 114.044,47.907 113.849,47.757 C113.657,47.572 113.547,47.314 113.546,47.045 L113.546,1.197 C113.546,0.960 113.625,0.717 113.849,0.480 C114.019,0.280 114.265,0.164 114.525,0.161 L141.314,0.161 C146.357,0.161 150.344,1.435 153.204,3.984 C156.063,6.530 157.494,9.716 157.494,13.614 C157.494,17.034 156.367,19.902 154.034,22.211 L154.034,22.290 ZM136.877,11.252 L130.777,11.252 L130.777,17.709 L137.252,17.709 C139.284,17.709 140.260,15.852 140.260,14.481 C140.260,13.111 139.132,11.252 136.877,11.252 ZM137.781,29.447 L130.777,29.447 L130.777,36.795 L137.781,36.795 C140.414,36.795 141.766,34.815 141.766,33.191 C141.766,31.498 140.412,29.447 137.781,29.447 ZM106.478,47.919 L92.933,47.919 L78.032,32.238 L78.034,32.238 C77.363,31.531 76.737,30.785 76.151,30.007 L74.797,28.262 L74.347,27.623 L74.044,27.623 L74.044,46.883 C74.046,47.154 73.938,47.413 73.746,47.601 C73.575,47.801 73.328,47.916 73.068,47.919 L57.714,47.919 C57.455,47.916 57.209,47.800 57.039,47.601 C56.846,47.413 56.738,47.154 56.738,46.883 L56.738,1.038 C56.738,0.798 56.813,0.558 57.036,0.320 C57.207,0.118 57.455,0.001 57.717,-0.000 L71.264,-0.000 L86.464,16.082 C87.067,16.719 87.669,17.353 88.270,18.073 C88.871,18.788 89.323,19.344 89.549,19.740 L89.922,20.301 L90.153,20.301 L90.153,1.035 C90.153,0.796 90.228,0.556 90.451,0.318 C90.620,0.118 90.867,0.001 91.127,-0.000 L106.480,-0.000 C106.704,-0.000 106.927,0.080 107.158,0.320 C107.382,0.558 107.457,0.801 107.457,1.038 L107.457,46.883 C107.457,47.123 107.382,47.363 107.158,47.601 C106.987,47.802 106.739,47.918 106.478,47.919 ZM49.745,47.919 L36.197,47.919 L21.293,32.238 L21.296,32.238 L21.298,32.238 C20.630,31.531 20.002,30.785 19.415,30.007 L18.064,28.262 L17.612,27.623 L17.311,27.623 L17.311,46.883 C17.311,47.123 17.237,47.363 17.010,47.601 C16.840,47.801 16.593,47.918 16.332,47.919 L0.979,47.919 C0.719,47.917 0.473,47.801 0.303,47.601 C0.109,47.414 -0.001,47.154 -0.000,46.883 L-0.000,1.038 C-0.000,0.798 0.074,0.558 0.303,0.320 C0.472,0.119 0.719,0.002 0.979,-0.000 L14.526,-0.000 L29.728,16.082 C30.329,16.719 30.930,17.353 31.534,18.073 C32.133,18.788 32.587,19.344 32.814,19.740 L33.186,20.301 L33.417,20.301 L33.417,1.035 C33.417,0.796 33.492,0.556 33.715,0.318 C33.885,0.117 34.133,0.001 34.394,-0.000 L49.745,-0.000 C50.005,0.001 50.252,0.119 50.420,0.320 C50.646,0.558 50.723,0.801 50.723,1.038 L50.723,46.883 C50.724,47.154 50.614,47.414 50.420,47.601 C50.251,47.801 50.004,47.917 49.745,47.919 Z" class="cls-1"/>
</svg>
