<svg xmlns="http://www.w3.org/2000/svg" xmlns:xlink="http://www.w3.org/1999/xlink" preserveAspectRatio="xMidYMid" width="50.04" height="50" viewBox="0 0 50.04 50">
  <defs>
    <style>
      .cls-1 {
        fill: #e7202b;
        fill-rule: evenodd;
      }
    </style>
  </defs>
  <path d="M45.661,16.327 C42.952,17.890 39.613,17.890 36.904,16.327 C34.195,14.764 32.525,11.876 32.525,8.750 C32.525,3.917 36.446,-0.000 41.282,-0.000 C46.119,-0.000 50.040,3.917 50.040,8.750 C50.040,11.876 48.371,14.764 45.661,16.327 ZM49.972,39.735 C48.669,51.660 31.627,53.885 27.249,42.745 C25.297,37.775 26.958,32.960 23.140,28.470 C19.265,23.907 14.904,24.255 9.574,23.385 C-4.304,21.125 -2.603,-0.000 11.483,-0.000 C16.738,-0.000 21.466,3.610 22.855,8.652 C24.354,14.085 23.093,18.722 27.799,23.035 C32.380,27.230 37.347,25.470 42.536,27.497 C47.440,29.412 50.542,34.502 49.972,39.735 ZM8.756,32.500 C13.593,32.500 17.513,36.418 17.513,41.250 C17.513,46.082 13.593,50.000 8.756,50.000 C3.920,50.000 -0.001,46.082 -0.001,41.250 C-0.001,36.418 3.920,32.500 8.756,32.500 Z" class="cls-1"/>
</svg>
