<svg xmlns="http://www.w3.org/2000/svg" xmlns:xlink="http://www.w3.org/1999/xlink" preserveAspectRatio="xMidYMid" width="131" height="119" viewBox="0 0 131 119">
  <defs>
    <style>
      .cls-1 {
        fill: #161d37;
        fill-rule: evenodd;
      }
    </style>
  </defs>
  <path d="M129.650,117.770 C128.791,118.577 127.632,119.020 126.432,118.999 L87.514,118.999 C86.319,119.018 85.167,118.573 84.318,117.764 C83.468,116.955 82.993,115.850 83.000,114.700 L83.000,59.426 C82.988,58.262 83.457,57.142 84.304,56.312 C85.151,55.481 86.305,55.009 87.514,55.000 L94.666,55.000 C95.542,57.783 98.219,59.677 101.239,59.649 L112.706,59.649 C115.726,59.677 118.404,57.783 119.279,55.000 L126.432,55.000 C128.959,55.015 130.999,56.992 131.000,59.426 L131.000,114.700 C130.994,115.856 130.508,116.962 129.650,117.770 ZM87.829,111.955 C87.828,112.454 88.038,112.932 88.410,113.281 C88.782,113.629 89.284,113.817 89.802,113.803 L91.884,113.803 C92.982,113.803 93.872,112.945 93.872,111.888 C93.872,110.831 92.982,109.973 91.884,109.973 L91.805,109.973 L91.805,104.777 L97.181,104.777 C97.203,105.824 98.090,106.663 99.177,106.664 C100.265,106.665 101.154,105.828 101.178,104.781 L101.178,102.936 C101.173,101.860 100.285,100.981 99.168,100.948 L89.802,100.948 C88.693,100.984 87.816,101.867 87.829,102.936 L87.829,111.955 ZM87.829,94.384 C87.829,95.441 88.719,96.299 89.817,96.299 L99.190,96.299 C100.288,96.299 101.178,95.441 101.178,94.384 L101.178,85.358 C101.178,84.301 100.288,83.444 99.190,83.444 L89.817,83.444 C88.719,83.444 87.829,84.301 87.829,85.358 L87.829,94.384 ZM101.178,67.863 C101.168,66.800 100.272,65.942 99.168,65.940 L89.802,65.940 C89.276,65.942 88.772,66.147 88.401,66.507 C88.031,66.868 87.825,67.356 87.829,67.863 L87.829,76.882 C87.826,77.388 88.032,77.874 88.403,78.233 C88.773,78.593 89.277,78.794 89.802,78.794 L91.883,78.794 C92.981,78.794 93.872,77.937 93.872,76.880 C93.872,75.823 92.981,74.965 91.883,74.965 L91.805,74.965 L91.805,69.769 L97.289,69.769 C97.545,70.560 98.319,71.089 99.179,71.061 C100.278,71.065 101.172,70.210 101.178,69.152 L101.178,67.863 ZM106.556,68.291 C105.779,67.543 104.521,67.543 103.744,68.291 L97.922,73.897 L96.150,72.191 C95.648,71.708 94.916,71.519 94.230,71.696 C93.544,71.873 93.008,72.389 92.824,73.050 C92.640,73.710 92.836,74.416 93.339,74.899 L96.517,77.958 C96.890,78.318 97.395,78.519 97.923,78.519 C98.450,78.519 98.956,78.318 99.328,77.958 L106.557,70.997 L106.556,70.998 C107.332,70.251 107.332,69.038 106.556,68.291 ZM106.556,103.640 C105.779,102.893 104.521,102.893 103.744,103.640 L97.922,109.247 L96.150,107.541 C95.648,107.058 94.916,106.869 94.230,107.046 C93.544,107.223 93.008,107.739 92.824,108.400 C92.640,109.060 92.836,109.765 93.339,110.249 L96.517,113.308 C96.890,113.667 97.395,113.869 97.923,113.869 C98.450,113.869 98.956,113.667 99.328,113.308 L106.557,106.347 L106.556,106.348 C107.332,105.600 107.332,104.388 106.556,103.640 ZM124.143,70.589 L111.655,70.589 C110.558,70.589 109.667,71.446 109.667,72.504 C109.667,73.561 110.558,74.418 111.655,74.418 L124.143,74.418 C125.241,74.418 126.131,73.561 126.131,72.504 C126.131,71.446 125.241,70.589 124.143,70.589 ZM124.143,88.094 L111.655,88.094 C110.558,88.094 109.667,88.950 109.667,90.008 C109.667,91.065 110.558,91.922 111.655,91.922 L124.143,91.922 C125.241,91.922 126.131,91.065 126.131,90.008 C126.131,88.950 125.241,88.094 124.143,88.094 ZM124.143,105.598 L111.655,105.598 C110.558,105.598 109.667,106.455 109.667,107.512 C109.667,108.570 110.558,109.426 111.655,109.426 L124.143,109.426 C125.241,109.426 126.131,108.570 126.131,107.512 C126.131,106.455 125.241,105.598 124.143,105.598 ZM114.500,55.000 L102.500,55.000 C101.117,55.000 100.000,53.882 100.000,52.500 C100.000,51.117 101.117,50.000 102.500,50.000 L114.500,50.000 C115.882,50.000 117.000,51.117 117.000,52.500 C117.000,53.882 115.882,55.000 114.500,55.000 ZM96.511,51.275 L89.608,51.275 C85.011,51.298 81.303,55.162 81.325,59.905 L81.325,101.293 L55.000,117.000 L55.000,59.665 L102.940,31.000 L102.940,46.129 L103.000,46.129 C99.966,46.158 97.319,48.258 96.511,51.275 ZM29.000,43.245 L77.289,14.000 L100.000,27.754 L51.711,57.000 L29.000,43.245 ZM3.000,27.604 L51.997,-0.000 L74.000,12.396 L25.002,40.000 L3.000,27.604 ZM48.000,117.000 L-0.000,88.334 L-0.000,31.000 L48.000,59.665 L48.000,117.000 Z" class="cls-1"/>
</svg>
